<svg xmlns="http://www.w3.org/2000/svg" width="1600" height="980" viewBox="0 0 1600 980" role="img" aria-labelledby="title desc">
  <title id="title">Technical schematic of an epidemiology-informed temporal graph neural network</title>
  <desc id="desc">Time-indexed patient contact graphs and clinical features pass through message-passing and temporal encoding, producing infection states and transition hazards constrained by epidemic equations and a composite training loss.</desc>
  <defs>
    <marker id="a" markerWidth="10" markerHeight="10" refX="8" refY="3" orient="auto"><path d="M0 0L0 6L9 3z" fill="#475569"/></marker>
    <style>.h{font:700 30px Arial;fill:#172554}.sh{font:700 20px Arial;fill:#1e293b}.tx{font:16px Arial;fill:#334155}.sm{font:14px Arial;fill:#475569}.eq{font:15px 'Courier New';fill:#312e81}.b{stroke-width:2.5}.ar{fill:none;stroke:#475569;stroke-width:3;marker-end:url(#a)}</style>
  </defs>
  <rect width="1600" height="980" fill="#f8fafc"/>
  <text x="800" y="48" text-anchor="middle" class="h">Epidemiology-informed learning on dynamic hospital contact graphs</text>

  <rect x="30" y="82" width="400" height="360" rx="18" fill="#eff6ff" stroke="#2563eb" class="b"/>
  <text x="230" y="118" text-anchor="middle" class="sh">1. Temporal patient graphs G‚āú</text>
  <g transform="translate(55 145)">
    <text x="65" y="0" text-anchor="middle" class="tx">t</text><text x="175" y="0" text-anchor="middle" class="tx">t + 1</text><text x="290" y="0" text-anchor="middle" class="tx">t + 2</text>
    <g stroke="#94a3b8" stroke-width="3">
      <path d="M30 45L85 25L105 82L45 100Z"/><path d="M140 35L200 22L220 90L155 100Z"/><path d="M255 25L320 45L300 105L245 85Z"/>
    </g>
    <g stroke="#fff" stroke-width="3">
      <circle cx="30" cy="45" r="14" fill="#16a34a"/><circle cx="85" cy="25" r="14" fill="#2563eb"/><circle cx="105" cy="82" r="14" fill="#dc2626"/><circle cx="45" cy="100" r="14" fill="#f59e0b"/>
      <circle cx="140" cy="35" r="14" fill="#16a34a"/><circle cx="200" cy="22" r="14" fill="#dc2626"/><circle cx="220" cy="90" r="14" fill="#dc2626"/><circle cx="155" cy="100" r="14" fill="#2563eb"/>
      <circle cx="255" cy="25" r="14" fill="#f59e0b"/><circle cx="320" cy="45" r="14" fill="#dc2626"/><circle cx="300" cy="105" r="14" fill="#16a34a"/><circle cx="245" cy="85" r="14" fill="#2563eb"/>
    </g>
  </g>
  <text x="60" y="300" class="eq">A‚āú[i,j] = contact / co-location</text>
  <text x="60" y="332" class="eq">xŠĶĘ‚āú = clinical + ward + time features</text>
  <text x="60" y="364" class="eq">yŠĶĘ‚āú ‚ąą {S, E, I, R}</text>
  <text x="60" y="401" class="sm">Edges and node attributes change as patients move</text>

  <rect x="485" y="82" width="610" height="360" rx="18" fill="#eef2ff" stroke="#4f46e5" class="b"/>
  <text x="790" y="118" text-anchor="middle" class="sh">2. Spatial message passing + temporal state</text>
  <rect x="520" y="150" width="250" height="110" rx="14" fill="#fff" stroke="#6366f1" class="b"/>
  <text x="645" y="180" text-anchor="middle" class="tx">Graph aggregation</text>
  <text x="540" y="215" class="eq">mŠĶĘ‚āú = ő£‚Īľ‚ąąNŠĶĘ őĪŠĶĘ‚Īľ‚āú W h‚Īľ‚āú</text>
  <text x="540" y="242" class="sm">contact-weighted exposure signal</text>
  <path d="M770 205h65" class="ar"/>
  <rect x="840" y="150" width="220" height="110" rx="14" fill="#fff" stroke="#6366f1" class="b"/>
  <text x="950" y="180" text-anchor="middle" class="tx">Node update</text>
  <text x="860" y="215" class="eq">zŠĶĘ‚āú = ŌÉ(W‚āďxŠĶĘ‚āú + W‚āėmŠĶĘ‚āú)</text>
  <text x="860" y="242" class="sm">learned patient embedding</text>
  <path d="M950 260v46" class="ar"/>
  <rect x="665" y="310" width="390" height="95" rx="14" fill="#ddd6fe" stroke="#7c3aed" class="b"/>
  <text x="860" y="342" text-anchor="middle" class="tx">Temporal encoder</text>
  <text x="700" y="376" class="eq">hŠĶĘ‚āú = GRU(zŠĶĘ‚āú, hŠĶĘ,‚āú‚āč‚āĀ)</text>
  <path d="M430 255h55" class="ar"/><path d="M1095 255h55" class="ar"/>

  <rect x="1150" y="82" width="420" height="360" rx="18" fill="#f0fdf4" stroke="#16a34a" class="b"/>
  <text x="1360" y="118" text-anchor="middle" class="sh">3. Prediction heads</text>
  <rect x="1185" y="150" width="350" height="72" rx="12" fill="#dcfce7"/>
  <text x="1360" y="179" text-anchor="middle" class="tx">Patient state probabilities</text>
  <text x="1215" y="207" class="eq">pŠĶĘ‚āú = softmax(W‚āöhŠĶĘ‚āú)</text>
  <rect x="1185" y="240" width="350" height="72" rx="12" fill="#dbeafe"/>
  <text x="1360" y="269" text-anchor="middle" class="tx">Transition hazards</text>
  <text x="1215" y="297" class="eq">őĽŠĶĘ‚āú(S‚ÜíE), ŌÉ(E‚ÜíI), ő≥(I‚ÜíR)</text>
  <rect x="1185" y="330" width="350" height="72" rx="12" fill="#fef3c7"/>
  <text x="1360" y="359" text-anchor="middle" class="tx">Global epidemiological parameters</text>
  <text x="1215" y="387" class="eq">ő≤Őā, ŌÉŐā, ő≥Őā and R‚āú estimates</text>

  <path d="M800 442v55" class="ar"/>
  <rect x="210" y="500" width="1180" height="275" rx="18" fill="#faf5ff" stroke="#7c3aed" class="b"/>
  <text x="800" y="538" text-anchor="middle" class="sh">4. Mechanistic consistency and composite objective</text>
  <rect x="250" y="570" width="460" height="150" rx="14" fill="#fff" stroke="#a855f7" class="b"/>
  <text x="480" y="601" text-anchor="middle" class="tx">Graph-based force of infection</text>
  <text x="280" y="638" class="eq">őĽŠĶĘ‚āú = ő≤ ő£‚Īľ A‚āú[i,j] p‚Īľ‚āú(I) / dŠĶĘ‚āú</text>
  <text x="280" y="674" class="eq">őĒSŠĶĘ‚āú ‚Čą -őĽŠĶĘ‚āú SŠĶĘ‚āú őĒt</text>
  <text x="280" y="704" class="sm">Predicted transitions should agree with transmission flow</text>
  <rect x="760" y="570" width="590" height="150" rx="14" fill="#fff" stroke="#a855f7" class="b"/>
  <text x="1055" y="601" text-anchor="middle" class="tx">Training loss</text>
  <text x="790" y="638" class="eq">L = Lstate + őĽ‚āĀ Ltransition + őĽ‚āā Lepi + őĽ‚āÉ Lreg</text>
  <text x="790" y="674" class="tx">supervised labels + next-state accuracy</text>
  <text x="790" y="704" class="tx">mechanistic residuals + parameter regularization</text>
  <path d="M710 645h50" class="ar"/>
  <path d="M800 775v55" class="ar"/>

  <rect x="80" y="830" width="1440" height="95" rx="18" fill="#fff7ed" stroke="#ea580c" class="b"/>
  <text x="800" y="863" text-anchor="middle" class="sh">5. Evaluation and interpretation</text>
  <text x="125" y="900" class="tx">Discrimination: AUC-ROC / AUC-PR</text>
  <text x="500" y="900" class="tx">Calibration: predicted vs observed risk</text>
  <text x="875" y="900" class="tx">Mechanistic plausibility: ő≤Őā, ő≥Őā, R‚āú</text>
  <text x="1230" y="900" class="tx">Attribution: influential contacts and wards</text>
  <text x="800" y="958" text-anchor="middle" class="sm">Illustrative technical schematic based on the reported architecture; not a figure from the paper</text>
</svg>
